<svg id="Capa_1" enable-background="new 0 0 512 512" height="512" viewBox="0 0 512 512" width="512" xmlns="http://www.w3.org/2000/svg"><g><g><path d="m427.452 100.127v-48.26c0-8.284-6.716-15-15-15h-68.589c-8.284 0-15 6.716-15 15v48.26z" fill="#738da3"/><path d="m183.137 100.127v-48.26c0-8.284-6.716-15-15-15h-68.589c-8.284 0-15 6.716-15 15v48.26z" fill="#bbd0d5"/></g><g><g><path d="m112.748 63.896h286.505v437.823h-286.505z" fill="#4e6da0" transform="matrix(0 1 -1 0 538.808 26.808)"/><path d="m256 139.555h218.911v286.505h-218.911z" fill="#2e3e6e"/></g><g><path d="m401.696 229.257h-47.891c-8.284 0-15 6.716-15 15s6.716 15 15 15h47.891c8.284 0 15-6.716 15-15s-6.716-15-15-15z" fill="#bbd0d5"/><path d="m158.194 234.257h-8.945v-8.945c0-8.284-6.716-15-15-15s-15 6.716-15 15v8.945h-8.945c-8.284 0-15 6.716-15 15s6.716 15 15 15h8.945v8.945c0 8.284 6.716 15 15 15s15-6.716 15-15v-8.945h8.945c8.284 0 15-6.716 15-15s-6.715-15-15-15z" fill="#e2e9ee"/><g><path d="m295.412 273.248h-35.366l29.354-23.004c6.52-5.11 7.663-14.538 2.554-21.059-5.11-6.522-14.54-7.663-21.06-2.554l-63.559 49.811c-5.035 3.946-7.014 10.652-4.926 16.7 2.087 6.048 7.781 10.106 14.179 10.106h38.799l-31.106 27.124c-6.244 5.445-6.892 14.92-1.447 21.164 2.966 3.401 7.128 5.142 11.312 5.142 3.497 0 7.01-1.216 9.853-3.694l61.273-53.43c4.714-4.11 6.382-10.713 4.188-16.569-2.196-5.857-7.794-9.737-14.048-9.737z" fill="#fbf4f4"/><path d="m309.458 282.984c-2.194-5.857-7.792-9.736-14.046-9.736h-35.366l29.354-23.004c6.52-5.11 7.663-14.538 2.554-21.059-5.11-6.522-14.54-7.663-21.06-2.554l-14.894 11.672v104.214l49.27-42.963c4.714-4.111 6.382-10.714 4.188-16.57z" fill="#e2e9ee"/></g></g></g><g><g><path d="m497 475.133h-482c-8.284 0-15-6.716-15-15v-33.794c0-8.284 6.716-15 15-15h482c8.284 0 15 6.716 15 15v33.794c0 8.284-6.716 15-15 15z" fill="#e2e9ee"/><path d="m497 411.339h-241v63.794h241c8.284 0 15-6.716 15-15v-33.794c0-8.284-6.716-15-15-15z" fill="#bbd0d5"/></g><g><path d="m497 153.921h-482c-8.284 0-15-6.716-15-15v-33.794c0-8.284 6.716-15 15-15h482c8.284 0 15 6.716 15 15v33.794c0 8.284-6.716 15-15 15z" fill="#e2e9ee"/><path d="m497 90.127h-241v63.794h241c8.284 0 15-6.716 15-15v-33.794c0-8.284-6.716-15-15-15z" fill="#bbd0d5"/></g></g></g></svg>