<?xml version="1.0" encoding="iso-8859-1"?>
<!-- Generator: Adobe Illustrator 19.0.0, SVG Export Plug-In . SVG Version: 6.00 Build 0)  -->
<svg xmlns="http://www.w3.org/2000/svg" xmlns:xlink="http://www.w3.org/1999/xlink" version="1.1" id="Layer_1" x="0px" y="0px" viewBox="0 0 313.65 313.65" style="enable-background:new 0 0 313.65 313.65;" xml:space="preserve" width="512" height="512">
<g>
	<path style="fill:#C4C8C4;" d="M184,108.075v164h-68v-164H184z"/>
	<rect x="116" y="108.075" style="fill:#A5A9A6;" width="34" height="164"/>
	<path style="fill:#1C7287;" d="M277.87,205.575H22.13c-12.222,0-22.13-9.908-22.13-22.13V43.705c0-12.222,9.908-22.13,22.13-22.13   H277.87c12.222,0,22.13,9.908,22.13,22.13v139.741C300,195.667,290.092,205.575,277.87,205.575z"/>
	<path style="fill:#165C6C;" d="M150,205.575H22.13c-12.222,0-22.13-9.908-22.13-22.13V43.705c0-12.222,9.908-22.13,22.13-22.13H150   V205.575z"/>
	<rect x="26" y="48.643" style="fill:#32A5B9;" width="248" height="129.865"/>
	<rect x="26" y="48.643" style="fill:#2B8A9A;" width="124" height="129.865"/>
	<path style="fill:#1C7287;" d="M219,292.075H81c-8.284,0-15-6.716-15-15s6.716-15,15-15h138c8.284,0,15,6.716,15,15   S227.284,292.075,219,292.075z"/>
	<path style="fill:#165C6C;" d="M150,292.075H81c-8.284,0-15-6.716-15-15s6.716-15,15-15h69V292.075z"/>
	<g>
		<path style="fill:#E45527;" d="M233.188,99.182h72.423c4.44,0,8.038,3.599,8.038,8.038v141.816c0,4.44-3.599,8.038-8.038,8.038    h-72.423c-4.44,0-8.038-3.599-8.038-8.038V107.221C225.149,102.781,228.748,99.182,233.188,99.182z"/>
		<path style="fill:#E6E6E6;" d="M276.128,235.075h-13.905c-1.858,0-3.364,1.642-3.364,3.5s1.506,3.5,3.364,3.5h13.905    c1.858,0,3.364-1.642,3.364-3.5S277.986,235.075,276.128,235.075z"/>
		<rect x="236.912" y="116.775" style="fill:#32A5B9;" width="64.975" height="102.793"/>
	</g>
</g>















</svg>
