<svg id="Capa_1" enable-background="new 0 0 511.43 511.43" height="512" viewBox="0 0 511.43 511.43" width="512" xmlns="http://www.w3.org/2000/svg"><g><g><g><path d="m255.715 511.43c-8.284 0-15-6.716-15-15v-52.732c0-8.284 6.716-15 15-15s15 6.716 15 15v52.732c0 8.284-6.716 15-15 15z" fill="#2e3e6e"/><path d="m255.715 428.698v82.732c8.284 0 15-6.716 15-15v-52.732c0-8.284-6.716-15-15-15z" fill="#1c2b5d"/></g><g><path d="m276.407 472.2h-41.383c-29.162 0-52.802-23.64-52.802-52.802v-42.162h146.988v42.162c-.001 29.161-23.642 52.802-52.803 52.802z" fill="#4e6da0"/><path d="m255.715 377.235v94.965h20.692c29.162 0 52.802-23.64 52.802-52.802v-42.162h-73.494z" fill="#2e3e6e"/></g><g><path d="m341.183 398.148h-170.936c-8.284 0-15-6.716-15-15v-31.112c0-8.284 6.716-15 15-15h170.936c8.284 0 15 6.716 15 15v31.112c0 8.284-6.716 15-15 15z" fill="#2e3e6e"/><path d="m341.183 337.036h-85.468v61.112h85.468c8.284 0 15-6.716 15-15v-31.112c0-8.284-6.716-15-15-15z" fill="#1c2b5d"/></g></g><g><g><path d="m327.587 337.036h-143.744v-307.973c0-16.051 13.012-29.063 29.063-29.063h85.618c16.051 0 29.063 13.012 29.063 29.063z" fill="#e2e9ee"/><path d="m298.524 0h-42.809v337.036h71.872v-307.973c0-16.051-13.012-29.063-29.063-29.063z" fill="#bbd0d5"/></g><g><g><path d="m345.204 234.389-153.421 61.856c-15.189 6.124-32.467-1.225-38.591-16.414l-3.381-8.385c-6.124-15.189 1.225-32.467 16.414-38.591l153.421-61.856c15.189-6.124 32.467 1.225 38.591 16.414l3.381 8.385c6.124 15.189-1.224 32.467-16.414 38.591z" fill="#fbf4f4"/><path d="m361.618 195.798-3.381-8.385c-6.124-15.189-23.402-22.538-38.591-16.414l-63.932 25.776v73.694l89.489-36.08c15.191-6.124 22.539-23.402 16.415-38.591z" fill="#e2e9ee"/></g><g><path d="m345.204 160.633-153.421 61.856c-15.189 6.124-32.467-1.225-38.591-16.414l-3.381-8.385c-6.124-15.189 1.225-32.467 16.414-38.591l153.421-61.856c15.189-6.124 32.467 1.225 38.591 16.414l3.381 8.385c6.124 15.189-1.224 32.467-16.414 38.591z" fill="#e2e9ee"/><path d="m361.618 122.042-3.381-8.385c-6.124-15.189-23.402-22.538-38.591-16.414l-63.932 25.776v73.694l89.489-36.08c15.191-6.124 22.539-23.402 16.415-38.591z" fill="#bbd0d5"/></g><g><path d="m345.204 86.877-153.421 61.856c-15.189 6.124-32.467-1.225-38.591-16.414l-3.381-8.385c-6.124-15.189 1.225-32.467 16.414-38.591l153.421-61.856c15.189-6.124 32.467 1.225 38.591 16.414l3.381 8.385c6.124 15.189-1.224 32.467-16.414 38.591z" fill="#fbf4f4"/><path d="m361.618 48.285-3.381-8.385c-6.124-15.189-23.402-22.538-38.591-16.414l-63.932 25.776v73.694l89.489-36.08c15.191-6.123 22.539-23.401 16.415-38.591z" fill="#e2e9ee"/></g></g></g></g></svg>