<?xml version="1.0" encoding="iso-8859-1"?>
<!-- Generator: Adobe Illustrator 19.0.0, SVG Export Plug-In . SVG Version: 6.00 Build 0)  -->
<svg version="1.1" id="Layer_1" xmlns="http://www.w3.org/2000/svg" xmlns:xlink="http://www.w3.org/1999/xlink" x="0px" y="0px"
	 viewBox="0 0 512 512" style="enable-background:new 0 0 512 512;" xml:space="preserve">
<polygon style="fill:#FFFFFF;" points="283.151,162.911 283.151,139.638 205.576,139.638 205.576,162.911 205.576,186.183 
	283.151,186.183 "/>
<g>
	<path style="fill:#F1CB30;" d="M283.151,271.515v-38.786v-23.273v-23.273h-77.576v23.273v23.273v38.786
		c0,2.912-0.548,5.8-1.612,8.51l-72.847,185.429H357.61l-72.847-185.429C283.698,277.315,283.151,274.427,283.151,271.515z"/>
	<polygon style="fill:#F1CB30;" points="159.03,267.107 75.309,480.219 159.03,267.109 	"/>
	<polygon style="fill:#F1CB30;" points="329.697,267.109 346.666,310.305 329.697,267.107 	"/>
</g>
<path style="fill:#E69629;" d="M193.939,93.092h100.848h11.636c4.167,0,8.069,1.109,11.453,3.027l11.503-69.021
	c1.125-6.748-0.777-13.649-5.199-18.87C319.761,3.01,313.265,0,306.424,0H182.303c-6.841,0-13.337,3.01-17.757,8.231
	c-4.422,5.219-6.322,12.122-5.199,18.87l10.999,65.994h11.958h11.636V93.092z"/>
<path style="fill:#8CB7E8;" d="M438.303,333.577V209.456c0-12.853-10.42-23.273-23.273-23.273h-85.333v-23.273v-46.545
	c0-8.685-4.768-16.247-11.819-20.246c-3.384-1.918-7.284-3.027-11.453-3.027h-11.636H193.939h-11.636h-11.958h-19.073
	c-12.853,0-23.273,10.42-23.273,23.273s10.42,23.273,23.273,23.273h7.758v23.273v46.545v57.651v0.002l-83.721,213.11
	c-2.814,7.163-1.905,15.256,2.43,21.617C82.074,508.194,89.273,512,96.97,512h294.788c7.697,0,14.896-3.806,19.229-10.166
	c4.335-6.361,5.246-14.452,2.43-21.617l-48.465-123.369h50.078C427.883,356.85,438.303,346.43,438.303,333.577z M131.117,465.455
	l72.847-185.429c1.066-2.712,1.612-5.598,1.612-8.51v-38.786v-23.273v-23.273v-23.273v-23.273h77.576v23.273v23.273v23.273v23.273
	v38.786c0,2.912,0.546,5.8,1.612,8.51l72.847,185.429H131.117z M391.758,310.305h-45.092l-16.969-43.196v-0.002v-34.378h62.061
	V310.305z"/>
<path style="fill:#A78966;" d="M324.181,8.231C319.761,3.01,313.265,0,306.424,0h-62.061h-62.061c-6.841,0-13.337,3.01-17.757,8.231
	c-4.422,5.219-6.322,12.122-5.199,18.87l10.999,65.994h11.958h11.636h50.424h50.424h11.636c4.169,0,8.069,1.109,11.453,3.027
	L329.38,27.1C330.504,20.351,328.603,13.45,324.181,8.231z"/>
<path style="fill:#F2D23D;" d="M284.763,280.025c-1.066-2.712-1.612-5.598-1.612-8.51v-38.786v-23.273v-23.273h-38.788h-38.788
	v23.273v23.273v38.786c0,2.912-0.548,5.8-1.612,8.51l-72.847,185.429h113.247H357.61L284.763,280.025z"/>
<path style="fill:#B3D8F4;" d="M415.03,186.183h-85.333v-23.273v-46.545c0-8.685-4.768-16.247-11.819-20.246
	c-3.384-1.918-7.284-3.027-11.453-3.027h-11.636h-50.424h-50.424h-11.636h-11.958h-19.073c-12.853,0-23.273,10.42-23.273,23.273
	s10.42,23.273,23.273,23.273h7.758v23.273v46.545v57.651l0,0L75.309,480.219c-2.814,7.163-1.905,15.256,2.43,21.617
	C82.074,508.194,89.273,512,96.97,512h147.394h147.394c7.697,0,14.896-3.806,19.231-10.166c4.335-6.361,5.246-14.452,2.43-21.617
	l-48.465-123.369h50.077c12.853,0,23.273-10.42,23.273-23.273V209.455C438.303,196.603,427.883,186.183,415.03,186.183z
	 M244.364,465.455H131.117l72.847-185.429c1.066-2.712,1.612-5.598,1.612-8.51v-38.786v-23.273v-23.273v-23.273v-23.273h38.788
	h38.788v23.273v23.273v23.273v23.273v38.786c0,2.912,0.548,5.8,1.612,8.51l72.847,185.429H244.364z M391.758,310.305h-45.092
	l-16.969-43.196l0,0V232.73h62.061V310.305z"/>
<g>
	<polygon style="fill:#F1CB30;" points="329.697,267.109 346.666,310.305 329.697,267.107 	"/>
	<polygon style="fill:#F1CB30;" points="159.03,267.109 159.03,267.107 75.309,480.219 	"/>
</g>
<path style="fill:#EEBF00;" d="M205.576,186.183v23.273v23.273v38.786c0,2.912-0.548,5.8-1.612,8.51l-72.847,185.429h113.247
	V186.183H205.576z"/>
<path style="fill:#806749;" d="M164.546,8.231c-4.422,5.219-6.322,12.122-5.199,18.87l10.999,65.994h11.958h11.636h50.424V0h-62.061
	C175.462,0,168.966,3.01,164.546,8.231z"/>
<path style="fill:#8CB7E8;" d="M131.117,465.455l72.847-185.429c1.066-2.712,1.612-5.598,1.612-8.51v-38.786v-23.273v-23.273
	v-23.273v-23.273h38.788V93.092h-50.424h-11.636h-11.958h-19.073c-12.853,0-23.273,10.42-23.273,23.273s10.42,23.273,23.273,23.273
	h7.758v23.273v46.545v57.651l0,0L75.309,480.219c-2.814,7.163-1.905,15.256,2.43,21.617C82.074,508.194,89.273,512,96.97,512
	h147.394v-46.545H131.117z"/>
<g>
</g>
<g>
</g>
<g>
</g>
<g>
</g>
<g>
</g>
<g>
</g>
<g>
</g>
<g>
</g>
<g>
</g>
<g>
</g>
<g>
</g>
<g>
</g>
<g>
</g>
<g>
</g>
<g>
</g>
</svg>
