<svg id="Capa_1" enable-background="new 0 0 512 512" height="512" viewBox="0 0 512 512" width="512" xmlns="http://www.w3.org/2000/svg"><g><g><path d="m309.418 110.627c-8.284 0-15-6.716-15-15v-65.627h-76.836v65.627c0 8.284-6.716 15-15 15s-15-6.716-15-15v-80.627c0-8.284 6.716-15 15-15h106.836c8.284 0 15 6.716 15 15v80.627c0 8.284-6.716 15-15 15z" fill="#4e6da0"/><path d="m309.418 0h-53.418v30h38.418v65.627c0 8.284 6.716 15 15 15s15-6.716 15-15v-80.627c0-8.284-6.716-15-15-15z" fill="#2e3e6e"/></g><g><g><g><path d="m410.225 512h-308.45l-24.099-362.206 178.324-10 178.324 10z" fill="#4e6da0"/><path d="m256 139.794v372.206h154.225l24.099-362.206z" fill="#2e3e6e"/></g><g><path d="m442.189 149.794h-372.378c-5.251 0-9.507-4.257-9.507-9.507v-43.693c0-5.251 4.257-9.507 9.507-9.507h372.378c5.251 0 9.507 4.257 9.507 9.507v43.693c0 5.25-4.256 9.507-9.507 9.507z" fill="#2e3e6e"/><path d="m442.189 87.086h-186.189v62.708h186.189c5.251 0 9.507-4.257 9.507-9.507v-43.693c0-5.251-4.256-9.508-9.507-9.508z" fill="#1c2b5d"/></g></g><g><g><path d="m307.771 379.436c-12.007 12.007-27.972 18.62-44.952 18.62s-32.944-6.613-44.952-18.62c-7.98-7.98-13.565-17.722-16.422-28.326 2.645 1.966 5.782 2.966 8.927 2.966 3.839 0 7.678-1.465 10.606-4.393 5.858-5.857 5.858-15.355 0-21.213l-26.124-26.124c-5.857-5.857-15.355-5.857-21.213 0l-26.124 26.124c-5.858 5.857-5.858 15.355 0 21.213 5.857 5.857 15.355 5.857 21.213 0l1.516-1.516c2.887 19.802 12.011 38.086 26.408 52.482 17.674 17.674 41.172 27.407 66.165 27.407 24.994 0 48.492-9.733 66.165-27.407 5.858-5.858 5.858-15.355 0-21.213-5.858-5.859-15.356-5.857-21.213 0z" fill="#fbf4f4"/><path d="m328.983 379.436c-5.857-5.859-15.355-5.857-21.213 0-12.007 12.007-27.972 18.62-44.952 18.62-2.295 0-4.568-.131-6.818-.37v30.125c2.258.162 4.532.245 6.818.245 24.994 0 48.492-9.733 66.165-27.407 5.859-5.858 5.859-15.355 0-21.213z" fill="#e2e9ee"/></g><g><path d="m364.483 294.228c-5.857-5.859-15.355-5.857-21.213 0l-1.516 1.516c-2.887-19.802-12.011-38.086-26.408-52.481-17.674-17.674-41.172-27.407-66.165-27.407-24.994 0-48.492 9.733-66.165 27.407-5.858 5.858-5.858 15.355 0 21.213 5.857 5.859 15.355 5.857 21.213 0 12.007-12.007 27.972-18.62 44.952-18.62 16.981 0 32.944 6.613 44.952 18.62 7.98 7.979 13.565 17.721 16.422 28.324-5.872-4.367-14.204-3.901-19.533 1.428-5.858 5.857-5.858 15.355 0 21.213l26.124 26.125c2.813 2.814 6.628 4.394 10.606 4.394s7.794-1.58 10.607-4.394l26.124-26.125c5.859-5.858 5.859-15.355 0-21.213z" fill="#fbf4f4"/><path d="m364.483 294.228c-5.857-5.859-15.355-5.857-21.213 0l-1.516 1.516c-2.887-19.802-12.011-38.086-26.408-52.481-16.057-16.057-36.921-25.558-59.347-27.162v30.125c14.402 1.526 27.749 7.866 38.134 18.251 7.98 7.979 13.565 17.721 16.422 28.324-5.872-4.367-14.204-3.901-19.533 1.428-5.858 5.857-5.858 15.355 0 21.213l26.124 26.125c2.813 2.814 6.628 4.394 10.606 4.394s7.794-1.58 10.607-4.394l26.124-26.125c5.859-5.859 5.859-15.356 0-21.214z" fill="#e2e9ee"/></g></g></g></g></svg>