<?xml version="1.0" encoding="iso-8859-1"?>
<!-- Generator: Adobe Illustrator 19.0.0, SVG Export Plug-In . SVG Version: 6.00 Build 0)  -->
<svg version="1.1" id="Layer_1" xmlns="http://www.w3.org/2000/svg" xmlns:xlink="http://www.w3.org/1999/xlink" x="0px" y="0px"
	 viewBox="0 0 297 297" style="enable-background:new 0 0 297 297;" xml:space="preserve">
<g>
	<path style="fill:#82D9C8;" d="M214.323,0H33.31c-4.764,0-8.627,3.862-8.627,8.627v246.835c0,4.764,3.862,8.627,8.627,8.627h49.367
		c4.764,0,8.627-3.862,8.627-8.627c0-2.994-1.526-5.629-3.842-7.177L209.538,65.17c1.369,0.915,3.014,1.45,4.785,1.45
		c4.764,0,8.627-3.862,8.627-8.627V8.627C222.95,3.862,219.087,0,214.323,0z"/>
	<path style="fill:#66BCAC;" d="M214.323,0h-90.518v193.771L209.538,65.17c1.369,0.915,3.014,1.45,4.785,1.45
		c4.764,0,8.627-3.862,8.627-8.627V8.627C222.95,3.862,219.087,0,214.323,0z"/>
	<path style="fill:#CBE3E3;" d="M263.69,49.367H137.862c-2.287,0-4.482,0.909-6.1,2.526l-55.186,55.185
		c-1.617,1.618-2.526,3.813-2.526,6.1v175.195c0,4.764,3.862,8.627,8.627,8.627H263.69c4.764,0,8.627-3.862,8.627-8.627V57.993
		C272.317,53.229,268.454,49.367,263.69,49.367z"/>
	<path style="fill:#AACCCA;" d="M263.69,49.367h-84.066V297h84.066c4.764,0,8.627-3.862,8.627-8.627V57.993
		C272.317,53.229,268.454,49.367,263.69,49.367z"/>
	<path style="fill:#9ADAD9;" d="M141.164,50.024c-3.224-1.338-6.935-0.598-9.402,1.869l-55.186,55.186
		c-2.467,2.468-3.205,6.178-1.869,9.402c1.335,3.223,4.481,5.325,7.969,5.325l55.186-0.001c4.764,0,8.627-3.862,8.627-8.627V57.993
		C146.489,54.505,144.387,51.359,141.164,50.024z"/>
</g>
<g>
</g>
<g>
</g>
<g>
</g>
<g>
</g>
<g>
</g>
<g>
</g>
<g>
</g>
<g>
</g>
<g>
</g>
<g>
</g>
<g>
</g>
<g>
</g>
<g>
</g>
<g>
</g>
<g>
</g>
</svg>
